<svg width="24" height="18" viewBox="0 0 24 18" fill="none" xmlns="http://www.w3.org/2000/svg">
<path d="M19.9913 1.4921C18.4861 0.80148 16.8721 0.292651 15.1845 0.00122172C15.1538 -0.0044007 15.123 0.00965536 15.1072 0.0377675C14.8996 0.406973 14.6697 0.888628 14.5087 1.2672C12.6936 0.995454 10.8878 0.995454 9.10988 1.2672C8.94885 0.880194 8.71055 0.406973 8.50205 0.0377675C8.48622 0.0105924 8.45551 -0.00346363 8.42479 0.00122172C6.73813 0.291714 5.12407 0.800543 3.61799 1.4921C3.60495 1.49772 3.59378 1.50709 3.58634 1.51928C0.524841 6.09312 -0.313837 10.5545 0.09759 14.9606C0.0994516 14.9822 0.111552 15.0028 0.128307 15.0159C2.14821 16.4993 4.10481 17.3998 6.02511 17.9967C6.05583 18.0061 6.08841 17.9948 6.10795 17.9695C6.5622 17.3492 6.96711 16.6951 7.31431 16.0073C7.33479 15.967 7.31524 15.9192 7.27335 15.9033C6.63108 15.6597 6.01953 15.3626 5.43124 15.0253C5.3847 14.9981 5.38098 14.9316 5.42379 14.8997C5.5476 14.8069 5.6714 14.7104 5.78961 14.613C5.81102 14.5952 5.84081 14.5914 5.86594 14.6027C9.73074 16.3672 13.9148 16.3672 17.734 14.6027C17.7591 14.5905 17.7889 14.5942 17.8113 14.612C17.9295 14.7095 18.0533 14.8069 18.178 14.8997C18.2208 14.9316 18.218 14.9981 18.1715 15.0253C17.5832 15.3692 16.9717 15.6597 16.3285 15.9024C16.2866 15.9183 16.268 15.967 16.2884 16.0073C16.6431 16.6942 17.048 17.3483 17.4939 17.9686C17.5125 17.9949 17.546 18.0061 17.5767 17.9967C19.5063 17.3998 21.4629 16.4993 23.4828 15.0159C23.5005 15.0028 23.5117 14.9831 23.5135 14.9616C24.0059 9.86764 22.6888 5.44279 20.022 1.52021C20.0155 1.50709 20.0043 1.49772 19.9913 1.4921ZM7.89142 12.2778C6.72789 12.2778 5.76913 11.2095 5.76913 9.89762C5.76913 8.58573 6.70927 7.51746 7.89142 7.51746C9.08288 7.51746 10.0323 8.5951 10.0137 9.89762C10.0137 11.2095 9.07358 12.2778 7.89142 12.2778ZM15.7383 12.2778C14.5748 12.2778 13.616 11.2095 13.616 9.89762C13.616 8.58573 14.5562 7.51746 15.7383 7.51746C16.9298 7.51746 17.8792 8.5951 17.8606 9.89762C17.8606 11.2095 16.9298 12.2778 15.7383 12.2778Z" fill="#EBDF70"/>
</svg>
