<svg width="23" height="18" viewBox="0 0 23 18" fill="none" xmlns="http://www.w3.org/2000/svg">
<path d="M19.8844 4.49392C19.8844 4.68517 19.8844 4.88152 19.8844 5.07794C19.8844 11.0841 15.3152 18 6.96238 18C4.49412 18.0042 2.07692 17.2972 0 15.9635C0.358504 16.0066 0.719179 16.0291 1.08027 16.0308C3.12657 16.03 5.11369 15.3439 6.72464 14.0821C5.77612 14.0646 4.85685 13.7506 4.09581 13.1842C3.33476 12.6179 2.77014 11.8275 2.48106 10.9239C3.16668 11.0618 3.87522 11.0353 4.54858 10.8464C3.52056 10.6398 2.5958 10.0836 1.93149 9.2723C1.26718 8.461 0.904289 7.44459 0.904543 6.39601V6.33922C1.53818 6.69174 2.24728 6.88667 2.97207 6.90772C2.01073 6.26408 1.33041 5.27875 1.06929 4.15169C0.808162 3.02463 0.985831 1.84036 1.56617 0.839533C2.70784 2.24278 4.13144 3.39072 5.74482 4.20898C7.3582 5.02724 9.12539 5.4977 10.9321 5.58977C10.701 4.61331 10.7997 3.58771 11.2127 2.67323C11.6257 1.75874 12.3299 1.00673 13.2152 0.534527C14.1006 0.0623228 15.1175 -0.103499 16.107 0.0629482C17.0965 0.229396 18.0031 0.718838 18.6853 1.45472C19.7022 1.25405 20.6775 0.881682 21.5695 0.353694C21.2324 1.40601 20.523 2.29926 19.5743 2.86579C20.466 2.75564 21.3367 2.51525 22.1587 2.15243C21.5464 3.06356 20.7782 3.85969 19.8896 4.50427L19.8844 4.49392Z" fill="white"/>
</svg>
